<?xml version="1.0" standalone="no"?>
<!DOCTYPE svg PUBLIC "-//W3C//DTD SVG 20010904//EN"
 "http://www.w3.org/TR/2001/REC-SVG-20010904/DTD/svg10.dtd">
<svg version="1.0" xmlns="http://www.w3.org/2000/svg"
 width="1358.000000pt" height="836.000000pt" viewBox="0 0 1358.000000 836.000000"
 preserveAspectRatio="xMidYMid meet">
<metadata>
Created by potrace 1.16, written by Peter Selinger 2001-2019
</metadata>
<g transform="translate(0.000000,836.000000) scale(0.100000,-0.100000)"
fill="#000000" stroke="none">
<path d="M0 4180 l0 -4180 6790 0 6790 0 0 3814 0 3815 -69 -19 c-149 -42
-225 -82 -302 -161 -92 -94 -139 -232 -139 -411 0 -120 10 -199 60 -458 49
-251 51 -258 88 -346 70 -167 104 -394 84 -572 -32 -289 -141 -477 -328 -568
-44 -21 -80 -38 -81 -39 0 0 -6 -41 -12 -90 -13 -110 -40 -217 -80 -314 -16
-39 -26 -71 -23 -69 4 2 30 15 57 29 94 49 149 62 249 57 114 -5 186 -37 265
-115 52 -53 64 -81 19 -49 -13 9 -45 32 -71 51 -127 91 -310 87 -466 -12 -79
-50 -125 -96 -185 -188 -330 -502 -893 -865 -1343 -865 -136 0 -326 50 -364
96 -15 18 -15 18 69 -10 286 -98 632 -26 977 201 436 288 759 730 830 1137 23
134 32 122 -92 123 -238 1 -449 90 -516 217 -45 88 -18 207 66 283 138 125
340 118 458 -15 71 -79 149 -274 149 -370 0 -17 4 -33 8 -36 4 -2 27 4 51 15
159 71 267 233 307 461 23 132 15 348 -19 478 -30 115 -62 194 -202 495 -205
441 -239 548 -239 765 -1 180 18 254 110 438 59 119 170 289 180 279 3 -3 -21
-45 -52 -93 -76 -118 -159 -291 -186 -389 -17 -64 -22 -108 -22 -220 -1 -155
14 -228 79 -397 36 -92 176 -400 180 -396 2 2 -8 53 -21 113 -115 546 13 858
392 955 42 11 90 20 106 20 l28 0 0 360 0 360 -6790 0 -6790 0 0 -4180z
m11966 4057 c109 -55 172 -166 181 -317 6 -109 -14 -208 -64 -309 -49 -99
-175 -229 -283 -291 -41 -24 -76 -45 -78 -46 -2 -1 15 -53 36 -116 90 -261
100 -434 32 -574 -50 -102 -160 -183 -296 -219 -32 -8 -58 -16 -59 -17 -1 -2
-7 -50 -13 -108 -20 -186 -75 -356 -196 -602 -39 -82 -71 -148 -70 -148 2 0
24 19 51 42 74 64 179 129 252 154 219 78 440 -55 399 -239 -30 -137 -164
-225 -256 -167 -34 21 -74 95 -86 158 -9 51 9 37 27 -21 9 -29 31 -67 48 -85
26 -26 39 -32 75 -32 39 0 50 5 89 44 87 88 86 199 -4 264 -153 111 -364 34
-608 -222 -50 -52 -134 -156 -188 -232 -285 -403 -300 -422 -310 -412 -4 3 33
69 81 145 361 571 482 798 574 1073 39 118 70 271 70 345 0 42 0 42 -41 48
-57 8 -113 48 -138 99 -41 86 -20 230 40 272 78 54 150 -39 180 -233 l13 -83
35 7 c83 16 166 58 223 115 46 47 60 68 77 124 26 86 27 170 1 294 -16 81 -56
213 -85 284 -6 14 -14 13 -83 -12 -202 -74 -485 -111 -693 -91 -67 6 -127 15
-135 19 -7 4 68 6 167 3 259 -5 456 25 648 99 l79 31 -57 142 c-102 251 -106
266 -106 407 0 96 4 139 19 183 22 68 76 148 128 190 88 71 223 85 324 34z
m-9391 -2448 c295 -30 626 -134 880 -277 505 -285 864 -741 924 -1176 12 -86
13 -287 2 -326 -4 -14 -10 45 -14 140 -6 175 -25 282 -70 400 -78 207 -207
391 -413 590 -325 313 -696 495 -1184 582 -169 30 -564 33 -737 5 -691 -111
-1226 -471 -1474 -991 -101 -213 -139 -377 -145 -631 l-4 -180 28 90 c139 439
411 758 817 955 527 256 1171 231 1760 -68 116 -59 345 -207 345 -222 0 -5
-48 20 -107 57 -659 407 -1386 474 -1978 182 -280 -138 -510 -358 -662 -637
-75 -136 -162 -382 -97 -271 73 122 229 274 389 379 243 158 593 274 970 321
131 16 513 16 640 0 339 -43 689 -164 1130 -390 383 -197 683 -389 1360 -871
583 -416 1015 -699 1242 -813 94 -48 375 -118 618 -153 89 -14 184 -18 370
-18 269 -1 373 10 564 59 385 97 697 330 813 606 130 310 38 685 -234 944
-187 179 -366 255 -603 255 -179 0 -324 -43 -485 -142 -215 -132 -323 -317
-290 -499 37 -208 244 -358 500 -359 59 -1 71 -3 56 -11 -31 -18 -240 -6 -309
18 l-59 20 38 -38 c104 -106 302 -154 472 -114 63 15 182 69 182 83 0 4 -57
15 -127 25 -218 30 -543 100 -543 116 0 4 24 15 53 24 28 9 97 42 152 72 211
117 243 130 320 129 51 0 97 -9 167 -32 111 -36 245 -62 323 -62 l53 0 12 -68
c43 -256 -162 -535 -445 -607 -77 -19 -201 -19 -278 1 -211 54 -361 215 -399
426 -10 55 -13 59 -67 96 -31 21 -77 66 -103 99 -217 287 -57 670 369 883 208
103 427 135 638 91 411 -85 730 -398 847 -831 30 -110 30 -343 0 -454 -87
-318 -302 -558 -645 -721 -140 -66 -238 -99 -392 -130 -240 -48 -498 -55 -769
-20 -61 8 -111 13 -113 11 -4 -4 215 -71 312 -95 303 -75 556 -105 880 -105
436 1 826 63 1378 220 105 30 192 52 194 50 9 -8 -372 -165 -572 -235 -292
-103 -633 -184 -915 -218 -177 -21 -589 -24 -760 -4 -438 49 -878 173 -1284
360 -49 23 -91 41 -94 41 -18 0 35 -39 59 -44 55 -11 199 -84 297 -152 240
-165 400 -320 706 -684 271 -322 432 -476 691 -657 426 -298 970 -524 1480
-612 190 -33 313 -44 525 -44 252 0 238 -16 -20 -24 -727 -23 -1585 281 -2218
786 -155 123 -264 233 -440 441 -91 107 -172 202 -180 210 -17 18 213 -332
322 -490 366 -530 640 -779 1109 -1006 143 -69 149 -86 9 -28 -297 123 -562
301 -773 521 -170 178 -306 356 -573 752 -87 129 -185 271 -219 315 -176 233
-378 437 -507 511 -8 5 9 -18 39 -51 144 -157 232 -336 386 -784 129 -373 214
-553 334 -704 49 -61 160 -172 215 -214 51 -39 21 -34 -41 7 -81 54 -216 197
-285 302 -78 116 -164 299 -242 514 -119 323 -168 449 -213 540 -83 166 -192
313 -299 400 -26 22 -45 35 -42 30 3 -6 24 -40 47 -78 220 -361 290 -711 190
-952 -12 -29 -13 -28 -21 37 -16 137 -79 248 -164 289 -42 20 -52 21 -90 11
-23 -6 -71 -30 -106 -52 -79 -52 -122 -52 -151 -2 -16 26 -21 64 -27 200 -5
92 -16 203 -25 247 -48 240 -171 500 -348 739 -37 50 -71 82 -122 114 -252
162 -420 273 -725 480 -190 130 -410 277 -489 329 l-144 93 -72 0 c-85 0 -212
-30 -270 -64 -51 -30 -122 -106 -141 -151 -50 -120 -5 -320 112 -496 115 -174
304 -271 497 -256 176 13 317 119 317 236 0 79 -75 181 -188 256 -58 38 -45
44 19 8 206 -112 261 -309 121 -435 -79 -71 -187 -110 -312 -110 -150 -1 -281
50 -392 152 -109 100 -206 266 -238 411 -19 85 -10 214 20 274 52 107 173 190
313 217 l68 13 -33 11 c-31 10 -32 11 -10 18 12 4 22 11 22 15 0 11 -332 198
-500 282 -380 189 -650 281 -940 320 -146 20 -517 17 -675 -5 -436 -61 -798
-231 -973 -459 -41 -53 -42 -55 -42 -134 0 -140 45 -245 157 -363 193 -205
505 -324 759 -290 47 6 97 15 111 21 38 14 38 5 2 -25 -164 -138 -473 -165
-717 -64 -190 79 -361 241 -418 395 -31 86 -36 75 -32 -67 4 -123 8 -145 42
-245 67 -200 181 -370 381 -570 197 -198 459 -392 748 -555 70 -39 127 -73
127 -76 0 -16 -350 138 -505 223 -257 140 -461 287 -630 458 -233 235 -361
478 -396 754 -11 92 -6 183 18 326 13 77 13 108 3 210 -26 243 -2 502 65 708
191 584 742 1030 1446 1171 261 52 489 63 764 35z m3429 -456 c304 -170 433
-261 561 -394 90 -95 145 -174 230 -334 65 -122 105 -186 143 -227 14 -15 23
-31 19 -34 -9 -9 -95 22 -182 67 -124 63 -282 169 -603 407 l-73 53 16 -36
c41 -100 163 -265 256 -349 164 -148 344 -223 511 -214 88 5 90 -3 11 -49
-200 -117 -529 -86 -769 73 -146 97 -287 265 -353 421 -103 240 -115 521 -31
711 l20 44 37 -22 c21 -13 114 -65 207 -117z m3112 -144 c38 -42 165 -118 257
-154 53 -20 115 -49 139 -64 119 -75 198 -245 197 -421 0 -70 -2 -82 -12 -66
-122 197 -180 257 -282 296 l-27 10 27 -32 c14 -17 55 -88 90 -157 35 -69 75
-141 89 -160 14 -19 24 -37 21 -39 -8 -9 -140 20 -196 43 -157 63 -263 179
-305 332 -16 58 -36 433 -23 433 3 0 14 -9 25 -21z m1226 -36 c-34 -66 -43
-114 -51 -268 -7 -134 -10 -156 -35 -207 -52 -110 -160 -197 -295 -238 -108
-34 -112 -29 -36 51 79 85 124 171 132 256 l5 58 -20 -31 c-19 -29 -273 -287
-278 -281 -9 11 -24 122 -24 180 1 243 124 383 410 462 52 15 120 35 150 44
30 10 56 17 58 16 2 -2 -5 -20 -16 -42z m1242 -248 c80 -71 106 -125 106 -219
0 -64 -32 -176 -49 -176 -5 0 -11 26 -14 57 -3 33 -18 81 -34 112 -34 67 -55
79 -42 24 5 -21 9 -65 10 -98 1 -77 11 -110 31 -110 9 0 20 -3 23 -7 4 -4 14
0 22 8 12 11 18 12 29 3 8 -6 11 -15 8 -20 -3 -5 2 -9 10 -9 22 0 30 -19 18
-43 -6 -12 -13 -30 -16 -39 -8 -25 -25 -22 -36 5 l-9 22 0 -22 c-1 -33 -33
-29 -59 7 -18 24 -20 31 -9 42 21 19 9 43 -27 56 -55 20 -113 78 -147 147 -29
59 -31 71 -27 132 4 48 18 99 48 175 l43 108 28 -49 c16 -27 57 -75 93 -106z
m539 -102 l68 -6 -29 -31 c-42 -45 -66 -83 -93 -149 -44 -109 -153 -177 -284
-177 -36 0 -65 4 -65 8 0 5 21 19 48 31 52 25 85 51 120 95 31 40 28 49 -10
27 -18 -11 -58 -29 -88 -42 -30 -12 -67 -31 -82 -41 l-28 -19 0 25 c0 35 34
121 65 166 69 100 178 132 378 113z m-711 -253 c51 -19 128 -73 128 -89 0 -5
-24 -4 -52 1 -58 11 -141 3 -175 -15 -19 -10 -6 -15 103 -36 93 -19 123 -28
120 -38 -4 -10 -1 -11 14 -3 10 5 20 10 23 10 2 0 -10 -28 -27 -61 -22 -45
-31 -80 -34 -128 l-4 -66 27 50 c15 27 35 62 46 76 11 15 28 47 39 71 l19 43
27 -59 c23 -52 26 -67 22 -140 -7 -127 -39 -173 -194 -277 l-104 -69 6 59 c5
40 1 90 -11 149 -16 83 -16 94 -1 144 8 30 29 73 46 97 l31 42 -43 -22 c-26
-14 -69 -24 -111 -27 -60 -4 -73 -2 -130 27 -34 17 -97 60 -140 95 l-77 65 43
6 c41 6 81 24 201 89 61 32 133 35 208 6z m-1648 -96 c18 -18 18 -17 10 -38
-8 -21 -51 -20 -63 1 -11 21 3 53 24 53 7 0 21 -7 29 -16z m528 -5 c158 -33
243 -112 476 -438 12 -17 6 -17 -91 -13 -89 4 -118 1 -213 -23 -151 -38 -233
-33 -339 19 -86 42 -187 131 -234 205 -17 26 -31 50 -31 54 0 3 38 -12 85 -34
104 -49 210 -73 280 -63 71 9 74 14 17 33 -27 10 -92 41 -143 71 -52 30 -118
64 -147 76 -29 11 -55 24 -58 27 -9 9 93 58 161 78 70 21 162 24 237 8z m-442
-53 c0 -28 -24 -40 -51 -26 -24 13 -25 46 -2 59 25 13 53 -4 53 -33z m-147 13
c15 -24 1 -49 -27 -49 -29 0 -44 33 -25 56 15 18 38 15 52 -7z m2235 -9 c57
-25 116 -83 139 -139 19 -44 72 -243 64 -238 -59 33 -152 57 -223 57 -49 0
-127 39 -163 82 -32 38 -70 118 -79 167 l-6 34 49 -46 c52 -48 118 -87 150
-87 16 0 15 5 -12 33 -62 65 -137 149 -137 152 0 2 12 6 28 8 53 10 139 -1
190 -23z m-2451 -15 c43 -14 85 -29 93 -34 18 -12 15 -13 -99 -34 -101 -19
-180 -56 -233 -109 -22 -22 -38 -41 -36 -43 2 -3 25 2 51 10 25 7 95 18 155
24 59 5 130 15 156 21 27 6 51 8 55 5 3 -4 -11 -39 -32 -79 -77 -150 -218
-246 -372 -254 -99 -5 -164 10 -359 81 l-148 54 57 32 c73 41 130 95 200 186
95 123 178 164 337 165 77 0 113 -5 175 -25z m298 -22 c7 -16 15 -21 30 -17
25 6 48 -17 43 -43 -5 -26 -60 -25 -68 2 -3 13 -13 20 -29 20 -28 0 -47 25
-38 49 9 24 50 17 62 -11z m-76 -31 c20 -38 -31 -71 -59 -37 -6 8 -9 23 -5 35
8 25 51 27 64 2z m70 -40 c20 -38 -31 -71 -59 -37 -6 8 -9 23 -5 35 8 25 51
27 64 2z m-96 -171 c-5 -102 -3 -127 16 -187 11 -38 30 -80 41 -94 l20 -25 0
50 c0 28 9 102 20 165 11 63 20 137 20 163 l0 48 34 -26 c52 -40 126 -140 157
-213 83 -199 54 -326 -133 -578 l-91 -125 -22 73 c-22 78 -79 189 -126 250
-103 129 -117 313 -37 473 19 38 95 145 102 145 2 0 2 -53 -1 -119z m-7395
-82 c145 -72 241 -251 242 -449 0 -229 -135 -422 -344 -490 -97 -31 -263 -28
-345 6 l-36 15 58 24 c174 70 305 255 322 454 l6 66 -111 -115 c-104 -107
-232 -265 -276 -339 -10 -17 -21 -31 -25 -31 -11 0 -24 180 -24 335 0 112 4
150 18 187 22 56 80 111 165 156 85 45 173 113 218 166 21 25 46 46 55 46 8 0
43 -14 77 -31z m4023 -75 c59 -21 99 -27 197 -31 67 -3 122 -7 122 -10 0 -2
-16 -18 -36 -36 -76 -67 -214 -158 -352 -233 -163 -87 -165 -93 -28 -101 153
-10 275 35 369 137 51 55 97 143 97 185 0 8 4 15 10 15 16 0 50 -129 50 -189
-1 -269 -249 -501 -535 -501 -168 0 -300 66 -486 244 l-80 76 26 48 c72 132
253 300 409 378 104 52 133 54 237 18z m6133 -87 c8 -53 53 -150 105 -225 51
-75 64 -119 59 -206 -3 -59 -10 -86 -40 -147 -20 -41 -53 -90 -73 -109 l-36
-35 6 65 c4 36 9 71 11 79 9 27 -18 139 -42 177 -14 22 -22 29 -19 17 3 -12
-6 -77 -20 -145 -14 -67 -25 -137 -25 -155 0 -18 -4 -33 -9 -33 -15 0 -108
105 -129 146 -88 173 -60 305 107 504 44 52 81 98 81 103 0 4 4 7 9 7 5 0 12
-19 15 -43z m-1924 -215 c0 -59 55 -189 118 -277 19 -27 46 -74 60 -104 64
-139 5 -360 -128 -486 l-32 -30 9 50 c4 28 8 97 8 155 0 96 -2 110 -30 165
l-30 60 -7 -69 c-5 -37 -17 -104 -28 -147 -11 -43 -23 -105 -27 -139 -3 -33
-10 -60 -15 -60 -19 0 -116 111 -146 167 -46 88 -65 164 -60 248 5 102 58 206
178 350 51 61 97 118 104 128 16 25 26 21 26 -11z m2460 -266 c36 -8 121 -35
190 -59 l124 -44 -54 -28 c-37 -18 -87 -60 -151 -126 -131 -135 -173 -154
-324 -153 -90 0 -121 4 -167 23 -32 12 -58 26 -58 29 0 4 34 13 76 20 94 15
181 53 225 99 l34 34 -30 -11 c-16 -6 -86 -18 -155 -25 -69 -8 -140 -17 -158
-21 l-34 -7 27 53 c51 100 169 195 272 219 56 13 110 12 183 -3z m-880 -58
c77 -35 150 -96 193 -161 20 -30 37 -58 37 -61 0 -4 -26 7 -57 23 -80 40 -157
61 -222 61 -67 0 -99 -15 -54 -24 16 -4 69 -29 119 -57 49 -28 107 -58 129
-66 22 -9 44 -19 48 -23 11 -10 -98 -57 -163 -71 -70 -15 -170 -6 -242 21 -70
26 -151 97 -215 189 -26 36 -63 89 -84 117 l-37 51 96 -4 c75 -3 114 1 172 16
103 27 206 23 280 -11z m359 -202 c14 -17 4 -46 -16 -46 -8 0 -11 -5 -7 -11 4
-8 9 -8 17 0 6 6 21 11 34 11 18 0 23 -6 23 -24 0 -28 -26 -42 -47 -25 -10 9
-17 9 -25 1 -9 -9 -7 -12 10 -12 27 0 39 -25 22 -45 -16 -19 -25 -19 -43 0
-13 13 -16 13 -21 -1 -9 -24 -50 -13 -54 14 -2 12 -9 22 -17 22 -22 0 -28 33
-8 50 10 8 17 25 15 36 -4 25 24 40 44 23 19 -16 17 -38 -3 -47 -11 -4 -18
-18 -18 -34 -1 -14 3 -24 7 -22 4 3 17 0 28 -6 27 -14 25 -3 -2 21 l-23 19 21
18 c11 9 19 23 16 30 -11 35 24 56 47 28z m-1289 -76 c25 -6 118 -36 208 -67
l163 -56 -52 -28 c-81 -45 -152 -104 -215 -180 -95 -113 -182 -158 -324 -166
-90 -6 -196 14 -285 53 l-40 17 113 23 c62 12 136 34 165 48 53 26 127 81 127
95 0 5 -22 2 -48 -4 -27 -7 -105 -18 -173 -24 -68 -7 -142 -16 -164 -21 -22
-5 -44 -10 -48 -10 -5 0 6 27 23 59 63 118 170 210 294 253 57 20 184 23 256
8z m-1134 -44 c68 -18 157 -66 216 -116 42 -37 128 -150 128 -171 0 -4 -37 10
-82 31 -101 49 -213 74 -285 65 -29 -4 -53 -10 -53 -14 0 -4 16 -13 36 -19 20
-6 88 -40 152 -75 65 -36 134 -71 155 -78 20 -7 36 -18 34 -24 -2 -5 -41 -25
-88 -44 -69 -28 -101 -35 -179 -39 -158 -8 -259 29 -368 132 -50 47 -75 79
-198 251 l-50 70 140 1 c110 0 157 5 216 22 89 24 156 27 226 8z m2577 -31
c82 -21 127 -47 195 -110 99 -91 127 -189 116 -407 -4 -71 -9 -128 -11 -128
-3 0 -26 19 -51 41 -45 40 -137 89 -234 123 -96 35 -184 148 -207 266 l-9 45
-1 -41 c-2 -63 -38 -168 -74 -216 -44 -57 -104 -102 -174 -128 -91 -34 -305
-88 -299 -76 47 104 57 143 65 243 7 87 14 120 35 161 34 66 88 120 164 160
57 30 182 67 182 54 0 -4 -27 -34 -60 -67 -63 -62 -107 -136 -117 -198 l-6
-36 60 57 c124 119 203 189 208 184 3 -3 5 -17 6 -31 1 -17 5 -10 12 22 l12
48 32 -58 c42 -76 97 -139 152 -175 57 -36 68 -35 42 1 -11 15 -41 72 -65 125
-25 53 -55 110 -66 126 l-21 30 28 0 c16 0 55 -7 86 -15z m-10112 -157 c132
-205 105 -513 -60 -678 -110 -110 -241 -139 -474 -106 -54 8 -100 16 -103 18
-2 3 31 28 74 56 113 73 220 191 277 304 58 115 58 125 3 97 -164 -82 -314
-220 -370 -339 -18 -38 -36 -70 -39 -70 -11 0 -30 105 -36 195 -10 156 33 310
111 401 51 60 116 90 247 115 63 12 157 32 209 44 52 13 101 23 108 24 7 1 30
-27 53 -61z m8047 -95 c2 -14 -4 -27 -16 -34 -11 -7 -18 -18 -15 -26 4 -9 10
-7 22 8 19 24 55 20 65 -8 13 -32 -35 -58 -61 -32 -9 9 -16 8 -28 -5 -9 -9
-22 -16 -29 -16 -20 0 -39 27 -32 45 4 10 -1 15 -14 15 -17 0 -18 -3 -8 -19 9
-15 9 -23 -1 -35 -18 -21 -48 -20 -60 1 -11 20 3 53 23 53 8 0 11 10 8 29 -3
23 1 30 17 36 27 8 54 -12 48 -37 -4 -13 0 -18 14 -18 16 0 17 3 8 19 -18 28
-4 53 28 49 20 -2 29 -9 31 -25z m12 -142 c0 -29 -25 -45 -49 -31 -25 13 -27
45 -4 59 23 12 53 -4 53 -28z m-92 20 c8 -4 12 -19 10 -32 -4 -33 -53 -40 -63
-9 -11 36 22 61 53 41z m227 -36 c100 -21 205 -76 274 -143 110 -108 131 -180
131 -449 0 -106 -2 -193 -4 -193 -2 0 -22 17 -45 38 -55 50 -135 98 -213 128
-205 79 -281 153 -332 323 -16 56 -23 241 -8 241 4 0 23 -30 42 -66 57 -107
152 -202 232 -233 l27 -10 -34 54 c-19 29 -50 87 -68 127 -36 80 -68 140 -93
176 -15 21 -15 22 2 22 11 0 51 -7 89 -15z m-408 -104 c-86 -88 -137 -180
-137 -246 l0 -40 24 35 c13 19 71 75 129 123 59 48 116 102 128 118 20 29 23
30 32 13 6 -10 12 -64 15 -119 3 -84 1 -110 -18 -165 -64 -190 -166 -265 -473
-346 -89 -23 -163 -41 -164 -40 -1 1 9 24 23 52 36 73 53 145 60 254 7 118 24
173 74 243 41 56 134 126 215 160 43 18 157 46 164 41 3 -2 -30 -39 -72 -83z
m-1114 -455 c390 -117 645 -425 683 -822 9 -101 -28 -352 -55 -369 -4 -2 -50
21 -102 52 -234 138 -337 192 -514 275 -306 143 -438 230 -615 408 -95 95
-230 271 -230 300 0 6 28 -4 63 -23 99 -56 254 -118 512 -207 210 -72 288
-103 433 -166 17 -8 32 -11 32 -8 0 17 -94 115 -165 171 -180 143 -497 260
-780 289 -36 4 -68 10 -70 14 -7 12 146 64 255 89 52 11 104 23 115 25 11 3
94 3 185 2 144 -3 176 -7 253 -30z m-6213 14 c80 -6 269 -29 421 -50 275 -40
416 -48 493 -31 l38 9 -4 -47 c-10 -104 -107 -253 -235 -363 -173 -146 -421
-253 -671 -289 -133 -18 -374 -7 -497 25 -205 52 -357 130 -507 258 -95 81
-189 221 -216 321 -13 46 -2 47 31 4 144 -189 581 -315 967 -278 112 10 325
49 316 58 -2 2 -109 20 -237 38 -481 71 -796 141 -943 208 -105 49 -105 57 6
57 54 0 168 12 273 29 347 56 524 68 765 51z m-1444 -272 c-32 -115 -38 -159
-33 -273 4 -92 11 -138 31 -200 27 -85 69 -164 79 -149 11 19 37 177 43 267 7
104 -7 237 -35 321 -10 31 -14 56 -9 56 17 0 122 -87 189 -157 128 -132 184
-246 183 -368 -1 -88 -24 -149 -139 -369 -100 -191 -88 -184 -223 -141 -357
113 -533 506 -354 790 36 57 117 140 191 196 71 54 86 60 77 27z m4631 -440
c54 -57 77 -114 77 -193 1 -123 -68 -226 -187 -281 -54 -25 -73 -29 -152 -29
-77 1 -99 5 -153 29 -72 33 -128 90 -137 139 -8 41 14 99 53 141 33 35 116 76
155 76 68 0 140 -59 153 -124 11 -62 -1 -74 -20 -19 -10 32 -30 63 -49 79 -61
51 -175 16 -228 -70 -27 -45 -24 -80 12 -120 57 -65 205 -96 309 -65 61 19
131 78 163 139 26 49 28 62 25 126 -4 57 -11 83 -36 128 -47 83 -41 102 15 44z"/>
<path d="M11750 8209 l-25 -11 27 -8 c124 -36 187 -174 143 -314 -10 -31 -24
-61 -31 -67 -17 -14 -18 -6 -4 75 21 127 -29 217 -140 255 l-60 20 -35 -41
c-61 -72 -79 -135 -80 -278 0 -141 1 -146 97 -382 33 -82 65 -148 71 -148 25
0 181 117 237 177 134 147 191 362 140 535 -17 59 -71 130 -124 163 -41 25
-61 30 -120 32 -39 2 -82 -2 -96 -8z"/>
<path d="M11247 6653 c-21 -42 -28 -93 -17 -138 17 -77 130 -145 130 -79 0 41
-31 166 -51 207 -23 44 -43 47 -62 10z"/>
<path d="M11614 4452 c-6 -4 -8 -16 -4 -27 6 -17 7 -16 12 8 3 15 5 27 4 27 0
0 -6 -4 -12 -8z"/>
<path d="M11660 4430 c0 -5 5 -10 11 -10 5 0 7 5 4 10 -3 6 -8 10 -11 10 -2 0
-4 -4 -4 -10z"/>
<path d="M12407 5556 c-135 -50 -205 -189 -144 -287 65 -107 217 -168 436
-177 l133 -5 -7 54 c-26 190 -97 330 -199 393 -39 25 -62 31 -115 33 -39 2
-81 -3 -104 -11z"/>
</g>
</svg>
