<?xml version="1.0" standalone="no"?>
<!DOCTYPE svg PUBLIC "-//W3C//DTD SVG 20010904//EN"
 "http://www.w3.org/TR/2001/REC-SVG-20010904/DTD/svg10.dtd">
<svg version="1.0" xmlns="http://www.w3.org/2000/svg"
 width="2048.000000pt" height="2048.000000pt" viewBox="0 0 2048.000000 2048.000000"
 preserveAspectRatio="xMidYMid meet">
<metadata>
Created by potrace 1.16, written by Peter Selinger 2001-2019
</metadata>
<g transform="translate(0.000000,2048.000000) scale(0.100000,-0.100000)"
fill="#000000" stroke="none">
<path d="M0 10240 l0 -10240 10240 0 10240 0 0 10240 0 10240 -10240 0 -10240
0 0 -10240z m2769 1804 c22 -58 73 -135 175 -264 110 -138 124 -159 153 -230
32 -76 32 -185 1 -247 -27 -55 -140 -171 -173 -179 -28 -7 -30 2 -17 51 5 17
7 36 5 43 -9 24 -21 11 -28 -29 -8 -47 -40 -125 -56 -134 -17 -11 -39 16 -45
57 -10 57 -24 57 -24 -1 0 -58 -13 -71 -43 -44 -12 11 -42 28 -67 38 -27 11
-70 44 -106 82 -102 105 -125 200 -83 339 22 76 57 161 74 184 15 20 125 213
153 268 12 23 22 50 22 58 0 24 20 56 33 51 7 -2 18 -21 26 -43z m15006 -20
c18 -52 135 -268 170 -314 17 -23 52 -108 74 -184 42 -139 19 -234 -83 -339
-36 -38 -79 -71 -106 -82 -25 -10 -55 -27 -67 -38 -31 -28 -43 -14 -43 51 -1
61 -12 56 -24 -9 -8 -46 -30 -67 -51 -49 -8 7 -15 17 -15 22 0 6 -9 23 -21 39
-11 16 -18 33 -15 38 9 13 -5 71 -17 71 -6 0 -8 -19 -4 -50 6 -47 5 -50 -17
-50 -30 0 -144 113 -173 172 -32 63 -32 172 0 248 29 71 43 92 152 230 137
174 144 185 179 273 9 22 21 37 28 35 7 -3 22 -32 33 -64z m-7492 -74 c64 -56
197 -275 197 -324 0 -18 -10 -29 -40 -45 -22 -12 -46 -21 -53 -21 -7 0 -34
-12 -62 -25 -27 -14 -66 -25 -85 -25 -19 0 -57 11 -85 25 -27 13 -54 25 -59
25 -5 0 -29 9 -53 21 -50 24 -54 42 -22 113 45 103 186 286 219 286 5 0 25
-13 43 -30z m-5196 -262 c5 -7 15 -32 21 -55 7 -23 29 -63 50 -90 58 -74 82
-127 82 -182 0 -44 -6 -57 -66 -137 -95 -129 -143 -144 -180 -55 -8 20 -27 52
-42 71 -100 126 -96 182 24 314 30 33 54 63 54 68 0 18 29 78 38 78 5 0 14 -6
19 -12z m10354 -38 c9 -24 39 -69 67 -100 115 -129 119 -185 20 -310 -15 -19
-34 -51 -42 -71 -23 -54 -38 -63 -82 -47 -20 7 -44 24 -53 38 -8 14 -37 53
-63 88 -42 56 -48 69 -48 112 0 56 24 109 82 183 21 27 43 67 50 90 22 80 44
85 69 17z m567 -31 c4 -30 45 -225 79 -379 17 -73 28 -158 30 -232 4 -102 2
-127 -17 -185 -12 -38 -35 -88 -51 -113 -33 -52 -110 -130 -156 -157 -17 -10
-52 -30 -78 -45 -26 -16 -53 -28 -60 -28 -7 0 -23 -9 -37 -19 -13 -11 -36 -23
-51 -26 -14 -4 -31 -13 -38 -21 -6 -8 -17 -14 -24 -14 -7 0 -24 -9 -39 -21
-27 -22 -56 -20 -56 4 0 7 13 31 29 53 36 48 61 93 170 309 103 202 131 267
131 301 0 38 -12 24 -75 -83 -31 -54 -83 -143 -116 -198 -33 -55 -74 -129 -90
-165 -17 -36 -36 -76 -42 -89 -13 -25 -42 -49 -51 -40 -12 11 -28 260 -24 354
6 110 22 173 76 285 37 78 71 114 316 350 59 57 106 111 117 135 10 23 21 44
25 48 13 13 29 1 32 -24z m-11483 -19 c11 -24 60 -81 119 -138 248 -239 283
-277 315 -345 55 -116 72 -176 78 -287 5 -97 -11 -347 -23 -359 -9 -9 -38 15
-51 40 -6 13 -25 53 -42 89 -16 36 -57 110 -90 165 -33 55 -85 144 -116 198
-63 107 -75 121 -75 83 0 -34 28 -98 131 -301 114 -224 147 -284 175 -318 52
-63 17 -83 -55 -33 -28 20 -56 36 -63 36 -7 0 -31 12 -53 25 -22 14 -45 25
-51 25 -6 0 -33 12 -59 28 -26 15 -61 35 -78 45 -18 10 -52 37 -75 60 -151
145 -184 309 -122 607 17 80 42 201 56 270 14 69 27 131 29 138 8 24 32 11 50
-28z m5333 -20 c9 -5 64 -32 122 -61 134 -66 155 -77 213 -117 l47 -33 47 32
c53 37 151 92 203 115 19 8 61 29 93 45 32 16 65 29 73 29 21 0 29 -45 28
-170 -1 -90 -7 -137 -27 -215 -60 -229 -141 -368 -315 -547 -93 -96 -80 -99
72 -16 53 29 169 127 214 181 57 69 111 161 128 219 21 68 41 78 150 78 137 0
270 -46 420 -146 144 -96 232 -194 324 -362 35 -62 16 -75 -46 -33 -81 53
-104 56 -250 32 -115 -19 -236 -53 -271 -74 -7 -5 -34 -14 -60 -22 -27 -7 -79
-25 -118 -40 -84 -32 -212 -61 -316 -70 -158 -15 -158 33 -1 80 53 17 216 106
261 145 41 35 34 51 -12 28 -81 -42 -234 -95 -367 -126 -233 -55 -226 -54
-288 -38 -31 8 -77 17 -102 21 -93 14 -300 80 -394 124 -92 45 -109 42 -53 -9
41 -37 203 -128 259 -145 157 -47 157 -95 -1 -80 -104 9 -232 38 -316 70 -38
15 -91 33 -118 40 -26 8 -53 17 -60 22 -35 21 -156 55 -271 74 -146 24 -169
21 -250 -32 -62 -42 -81 -29 -46 33 92 168 180 266 324 362 150 100 283 146
420 146 109 0 129 -10 150 -78 22 -72 49 -120 113 -199 57 -71 167 -168 229
-201 95 -52 124 -65 131 -59 4 4 -23 38 -59 75 -174 179 -255 318 -315 547
-20 78 -26 125 -27 215 -1 161 10 189 62 160z m-4083 -57 c-3 -15 -10 -59 -15
-98 -22 -194 -42 -325 -57 -375 -21 -72 -63 -147 -105 -187 -37 -36 -149 -97
-196 -108 -17 -3 -36 -13 -43 -21 -6 -8 -16 -14 -22 -14 -5 0 -39 -25 -74 -55
-93 -79 -104 -73 -53 29 17 32 30 64 30 71 0 7 7 18 15 25 16 14 21 60 6 60
-5 0 -13 -10 -16 -22 -4 -13 -15 -32 -25 -43 -9 -11 -28 -43 -42 -71 -34 -70
-68 -124 -78 -124 -18 0 -21 41 -6 84 9 25 20 101 25 169 18 214 49 307 145
427 40 51 156 130 190 130 6 0 28 9 49 20 20 11 41 20 46 20 15 0 135 60 170
85 46 34 65 33 56 -2z m8968 16 c12 -6 31 -20 42 -30 11 -10 56 -32 100 -49
44 -18 85 -36 90 -40 6 -4 22 -10 36 -13 60 -15 162 -83 205 -137 95 -120 127
-215 145 -427 5 -68 16 -144 25 -169 14 -43 12 -84 -6 -84 -10 0 -30 30 -76
117 -20 37 -42 75 -49 83 -7 8 -16 25 -19 38 -4 12 -12 22 -17 22 -15 0 -10
-46 6 -60 8 -7 15 -18 15 -25 0 -7 13 -39 30 -71 51 -102 40 -108 -53 -29 -35
30 -69 55 -74 55 -6 0 -16 6 -22 14 -7 8 -26 18 -43 21 -47 11 -159 72 -196
108 -42 40 -84 115 -105 187 -15 50 -35 181 -57 375 -5 39 -12 83 -15 98 -8
30 2 34 38 16z m-6074 -325 c80 -19 173 -68 224 -116 46 -43 42 -63 -12 -53
-136 24 -225 9 -299 -52 -49 -40 -77 -92 -87 -165 -17 -114 79 -278 238 -405
15 -12 27 -26 27 -32 0 -10 -56 -74 -161 -185 l-57 -60 -108 25 c-93 20 -135
24 -284 24 -152 0 -186 -3 -260 -24 -122 -33 -181 -58 -300 -125 -93 -53 -150
-91 -307 -205 -224 -163 -571 -371 -619 -371 -8 0 -25 -6 -37 -14 -41 -26
-231 -56 -359 -56 -93 0 -143 6 -226 25 -124 29 -256 75 -302 105 -8 6 -24 14
-35 19 -36 16 -148 93 -220 152 -82 66 -229 218 -250 258 -7 15 -32 35 -54 45
-38 18 -41 18 -78 0 -20 -11 -51 -39 -68 -62 -29 -42 -30 -48 -30 -145 1 -90
4 -108 27 -152 33 -62 91 -119 141 -136 45 -16 62 -33 53 -54 -9 -25 -213 -21
-274 6 -75 33 -89 40 -126 71 -107 88 -172 292 -134 415 9 26 18 60 22 75 14
62 98 158 171 196 44 23 131 43 152 35 7 -3 24 -2 38 1 22 6 25 12 25 51 0
166 93 285 273 346 97 34 189 36 305 8 119 -29 168 -55 228 -122 69 -77 93
-131 104 -239 8 -79 7 -95 -6 -108 -14 -13 -17 -12 -32 10 -39 57 -140 148
-192 172 -115 55 -144 63 -210 62 -78 -1 -130 -25 -195 -91 -115 -115 -78
-270 111 -459 191 -191 361 -290 563 -330 155 -31 190 -30 389 5 174 32 324
117 637 366 163 130 355 266 405 289 8 4 33 18 55 31 22 14 50 29 61 34 12 5
55 25 95 44 136 63 347 127 422 127 45 0 58 21 31 53 -65 75 -104 178 -104
273 0 67 31 164 74 232 51 82 179 178 266 202 113 31 171 32 289 4z m3416 -1
c74 -18 130 -51 202 -116 182 -167 203 -416 49 -594 -27 -32 -14 -53 31 -53
75 0 286 -64 422 -127 40 -19 83 -39 95 -44 11 -5 39 -20 61 -34 22 -13 47
-27 55 -31 50 -23 242 -159 405 -289 313 -249 463 -334 637 -366 199 -35 234
-36 389 -5 202 40 372 139 563 330 189 189 226 344 111 459 -65 66 -117 90
-195 91 -66 1 -95 -7 -210 -62 -52 -24 -153 -115 -192 -172 -15 -22 -18 -23
-32 -10 -13 13 -14 29 -6 108 11 108 35 162 104 239 60 67 109 93 228 122 116
28 208 26 307 -8 176 -61 269 -178 271 -343 0 -42 3 -48 25 -54 14 -3 31 -4
38 -1 21 8 108 -12 152 -35 73 -38 157 -134 171 -196 4 -15 13 -49 22 -75 38
-123 -27 -327 -134 -415 -37 -31 -51 -38 -126 -71 -61 -27 -265 -31 -274 -6
-9 21 8 38 53 54 50 17 108 74 141 136 23 44 26 62 27 152 0 97 -1 103 -30
145 -17 23 -48 51 -68 62 -37 18 -40 18 -78 0 -22 -10 -47 -30 -54 -45 -21
-40 -168 -192 -250 -258 -72 -59 -184 -136 -220 -152 -11 -5 -27 -13 -35 -19
-46 -30 -178 -76 -302 -105 -83 -19 -133 -25 -226 -25 -128 0 -318 30 -359 56
-12 8 -29 14 -37 14 -48 0 -395 208 -619 371 -157 114 -214 152 -307 205 -119
67 -178 92 -300 125 -74 21 -108 24 -260 24 -149 0 -191 -4 -284 -24 l-108
-25 -57 60 c-105 111 -161 175 -161 185 0 6 12 20 26 32 126 104 186 183 224
293 25 72 24 104 -3 178 -50 133 -177 185 -368 151 -54 -10 -58 10 -12 53 67
64 184 114 313 135 36 6 115 -3 185 -20z m-8730 -73 c12 -19 -139 -218 -202
-266 -23 -18 -74 -41 -115 -53 -40 -12 -86 -26 -103 -31 -40 -14 -64 8 -46 42
6 13 19 37 28 53 9 17 22 34 30 38 17 11 17 27 -2 27 -21 0 -88 -85 -101 -128
-14 -49 -35 -51 -59 -5 -24 46 -80 103 -100 103 -23 0 -18 -10 20 -47 57 -55
42 -92 -23 -59 -15 7 -56 17 -92 21 -67 8 -126 33 -195 84 -22 17 -61 44 -88
62 -26 18 -47 38 -47 46 0 12 37 32 142 77 92 40 205 1 316 -110 l63 -64 67
68 c37 37 86 80 108 95 51 35 143 51 244 42 44 -4 85 -2 100 4 33 13 47 13 55
1z m13919 -2 c181 5 260 -27 369 -149 l54 -61 64 65 c112 112 225 151 317 111
105 -45 142 -65 142 -77 0 -8 -21 -28 -47 -46 -27 -18 -66 -45 -88 -62 -69
-51 -128 -76 -195 -84 -36 -4 -77 -14 -92 -21 -65 -33 -80 4 -23 59 38 37 43
47 21 47 -22 0 -73 -52 -97 -98 -26 -52 -48 -52 -63 0 -13 43 -80 128 -101
128 -19 0 -19 -16 -2 -27 8 -4 21 -21 30 -38 9 -16 22 -40 28 -53 18 -34 -6
-56 -46 -42 -17 5 -64 19 -105 31 -49 14 -90 34 -119 57 -39 32 -119 130 -179
219 -27 40 -21 58 17 46 14 -4 66 -7 115 -5z m-10114 -20 c0 -5 -16 -28 -34
-50 -19 -22 -38 -54 -41 -72 -4 -17 -18 -55 -32 -84 -28 -58 -87 -102 -137
-102 -37 0 -44 -26 -14 -58 14 -15 33 -47 42 -70 16 -42 16 -45 -5 -80 -12
-21 -44 -59 -71 -85 -27 -26 -56 -64 -64 -83 -23 -54 -43 -41 -74 46 -15 41
-41 103 -58 137 -40 78 -40 109 -2 161 17 23 30 46 30 51 0 12 -115 73 -190
99 -136 47 -362 48 -479 2 -76 -29 -125 -66 -214 -159 -43 -44 -84 -81 -91
-81 -16 0 -66 38 -66 50 0 21 114 141 167 176 123 82 305 129 465 121 134 -7
341 -58 400 -99 36 -25 54 -15 61 34 7 52 55 102 111 117 22 5 82 15 133 21
50 6 104 15 120 19 30 9 43 6 43 -11z m6325 -8 c17 0 61 -7 99 -15 83 -17 132
-57 142 -114 10 -57 20 -63 63 -41 51 26 141 55 236 76 221 49 462 11 628
-100 53 -35 167 -155 167 -176 0 -12 -50 -50 -66 -50 -7 0 -48 37 -91 81 -126
132 -202 173 -348 190 -103 11 -259 -3 -340 -31 -82 -29 -186 -81 -192 -96 -2
-7 9 -31 26 -55 39 -53 39 -84 -1 -162 -17 -34 -43 -96 -58 -137 -31 -87 -51
-100 -74 -46 -8 19 -37 57 -64 83 -27 26 -59 64 -71 85 -21 35 -21 38 -5 80 9
23 28 55 42 70 30 32 23 58 -14 58 -50 0 -109 44 -137 102 -14 29 -28 67 -32
84 -3 18 -22 50 -42 73 -50 59 -41 71 39 55 34 -8 77 -14 93 -14z m-9582 -84
c12 -7 47 -17 77 -20 98 -12 204 -46 253 -82 53 -39 102 -108 142 -203 14 -35
38 -80 52 -102 23 -35 24 -59 3 -59 -4 0 -88 54 -186 119 -98 66 -183 117
-188 114 -12 -8 65 -80 168 -157 42 -31 76 -61 76 -66 0 -17 -50 -23 -134 -17
-150 11 -271 92 -294 198 -10 46 -42 260 -42 282 0 12 50 8 73 -7z m12747 7
c0 -22 -32 -235 -42 -280 -8 -41 -21 -63 -55 -97 -67 -68 -138 -97 -253 -102
-112 -6 -140 4 -100 37 225 182 238 193 223 202 -5 3 -89 -48 -187 -114 -98
-65 -182 -119 -186 -119 -21 0 -20 24 3 59 14 22 38 67 52 102 40 95 89 164
142 203 50 36 156 70 255 82 32 4 66 13 75 20 19 14 73 19 73 7z m-9344 -99
c24 -10 80 -60 151 -134 90 -94 126 -124 180 -151 39 -20 69 -41 71 -51 3 -16
-5 -18 -57 -18 -33 0 -112 -13 -178 -30 -331 -83 -376 -87 -444 -44 -30 19
-39 31 -37 47 3 19 9 22 46 20 23 -1 42 2 42 8 0 5 -7 9 -14 9 -8 0 -27 16
-42 35 -22 29 -25 41 -20 72 4 21 7 49 7 63 1 32 20 53 70 76 36 16 40 21 35
46 -6 30 1 37 54 54 51 17 92 16 136 -2z m5998 4 c56 -16 66 -25 60 -57 -5
-24 -1 -29 35 -45 50 -23 69 -44 70 -76 0 -14 3 -43 7 -66 5 -34 2 -45 -21
-72 -15 -18 -33 -32 -41 -32 -8 0 -14 -4 -14 -9 0 -6 19 -9 43 -8 36 2 42 -1
45 -20 2 -16 -7 -28 -37 -47 -68 -43 -113 -39 -444 44 -66 17 -145 30 -178 30
-52 0 -60 2 -57 18 2 10 32 31 70 51 54 26 90 57 179 150 142 147 183 168 283
139z m-10510 -233 c11 -8 39 -15 63 -15 48 0 47 1 58 -100 17 -156 119 -432
233 -630 134 -231 359 -464 587 -607 58 -37 350 -175 415 -196 103 -35 268
-77 300 -77 14 0 57 -7 95 -15 99 -21 358 -21 494 1 107 17 278 59 361 89 68
24 200 86 279 130 24 14 54 25 66 25 24 0 68 -36 63 -52 -6 -16 -195 -110
-313 -156 -230 -89 -396 -130 -632 -156 -169 -19 -263 -20 -398 -5 -148 16
-378 62 -400 78 -5 5 -23 11 -40 15 -98 23 -321 131 -460 224 -172 114 -280
211 -412 367 -97 116 -215 280 -247 345 -31 63 -104 253 -125 325 -42 143 -73
385 -54 418 7 12 47 7 67 -8z m14963 -55 c2 -72 -27 -247 -58 -355 -21 -72
-94 -262 -125 -325 -51 -103 -208 -309 -354 -463 -214 -227 -580 -437 -895
-513 -156 -37 -359 -64 -488 -64 -220 0 -539 57 -747 133 -182 66 -410 173
-418 195 -5 16 39 52 63 52 12 0 42 -11 66 -25 79 -44 211 -106 279 -130 83
-30 254 -72 361 -89 136 -22 395 -22 494 -1 39 8 81 15 95 15 85 0 417 111
542 180 9 5 47 25 85 45 147 77 278 177 414 316 144 146 207 236 340 489 65
124 144 377 157 500 l7 75 52 5 c29 3 58 11 65 18 7 7 24 12 38 10 24 -3 25
-7 27 -68z m-16279 -12 c12 -16 18 -191 7 -235 -6 -26 -4 -33 8 -33 8 0 20 7
27 15 15 18 101 59 155 74 55 15 122 14 197 -4 155 -36 281 -109 589 -339 134
-100 275 -200 313 -222 79 -45 96 -65 77 -88 -39 -47 -137 7 -423 235 -259
206 -358 271 -498 326 -55 22 -82 26 -170 27 -90 0 -112 -3 -152 -22 -27 -13
-48 -29 -48 -35 0 -14 91 -59 175 -88 58 -20 71 -45 28 -54 -15 -3 -72 -20
-126 -37 -91 -30 -101 -31 -145 -20 -49 13 -76 37 -68 59 3 8 -9 19 -29 27
-19 8 -40 27 -47 41 -9 21 -17 25 -35 20 -32 -8 -47 32 -39 104 8 71 48 142
104 186 25 19 51 44 59 55 16 23 26 25 41 8z m17565 -8 c8 -11 34 -36 59 -55
56 -44 96 -115 104 -186 8 -72 -7 -112 -39 -104 -18 5 -26 1 -35 -20 -7 -14
-28 -33 -47 -41 -20 -8 -32 -19 -29 -27 8 -22 -19 -46 -68 -59 -44 -11 -54
-10 -145 20 -54 17 -111 34 -126 37 -43 9 -30 34 28 54 84 29 175 74 175 88 0
6 -21 22 -47 35 -41 19 -64 22 -153 22 -107 -1 -155 -13 -270 -70 -88 -43
-272 -179 -550 -403 -78 -63 -196 -131 -228 -131 -37 0 -60 25 -45 48 5 10 41
35 79 57 98 57 125 76 351 248 317 240 494 327 663 327 75 0 209 -47 240 -86
7 -7 19 -14 27 -14 12 0 14 7 8 33 -11 44 -5 219 7 235 15 17 25 15 41 -8z
m-14523 -180 c47 -17 105 -38 129 -46 24 -7 49 -18 55 -23 6 -5 30 -14 53 -20
42 -11 70 -41 58 -61 -3 -6 -21 -10 -38 -10 -18 0 -66 -7 -107 -15 -41 -9
-122 -25 -180 -35 -58 -11 -134 -27 -170 -35 -36 -8 -79 -15 -97 -15 -33 0
-54 -17 -31 -25 14 -5 79 1 363 34 204 24 195 24 195 8 0 -15 -251 -273 -296
-304 -16 -12 -43 -25 -60 -29 -16 -4 -35 -11 -42 -17 -27 -22 -157 -20 -264 3
-57 12 -114 28 -128 35 -14 7 -40 15 -58 19 -19 3 -48 12 -65 20 -60 27 -192
59 -272 65 -66 5 -80 9 -83 24 -3 13 12 25 60 47 39 18 109 68 183 130 170
144 297 238 331 246 16 3 38 12 50 19 30 19 74 23 209 20 106 -3 130 -7 205
-35z m11851 18 c13 -9 37 -19 53 -22 34 -8 161 -102 331 -246 74 -62 144 -112
183 -130 48 -22 63 -34 60 -47 -3 -15 -17 -19 -83 -24 -80 -6 -212 -38 -272
-65 -17 -8 -46 -17 -65 -20 -18 -4 -44 -12 -58 -19 -14 -7 -72 -23 -129 -35
-154 -34 -281 -17 -371 49 -51 37 -290 283 -290 298 0 7 6 13 13 13 20 -1 335
-38 424 -51 81 -11 139 -7 128 11 -3 5 -31 11 -63 15 -31 3 -95 14 -142 25
-47 10 -112 23 -145 29 -33 6 -94 17 -135 26 -41 8 -89 15 -107 15 -17 0 -35
4 -38 10 -12 19 16 50 57 61 24 6 51 17 62 25 11 8 27 14 34 14 8 0 28 6 45
14 31 14 160 59 202 70 11 3 79 4 151 2 95 -2 137 -7 155 -18z m-7015 -3 c10
-8 25 -15 33 -15 12 0 53 -17 156 -65 73 -35 209 -58 340 -59 137 -1 165 -7
144 -32 -6 -8 -17 -14 -25 -14 -15 0 -198 -88 -259 -125 -22 -13 -47 -28 -55
-32 -8 -4 -51 -30 -95 -56 -44 -27 -89 -54 -100 -60 -11 -7 -46 -29 -78 -49
-32 -21 -62 -38 -66 -38 -5 0 -20 -9 -34 -20 -43 -34 -258 -136 -337 -160 -41
-12 -96 -29 -121 -37 -25 -7 -55 -20 -65 -28 -18 -13 -17 -14 14 -15 90 -1
306 52 387 94 17 9 35 16 42 16 6 0 24 7 40 15 15 9 39 20 53 25 14 6 32 14
40 20 8 5 26 15 40 20 14 6 43 21 65 35 22 13 49 28 60 33 11 6 63 35 116 65
185 107 482 237 541 237 43 0 9 -49 -167 -237 -171 -184 -490 -380 -702 -433
-24 -5 -62 -15 -85 -21 -77 -19 -233 -27 -349 -18 -226 16 -537 113 -694 214
-27 18 -71 45 -97 60 -61 35 -142 115 -129 128 7 7 18 5 33 -5 13 -8 52 -25
88 -39 56 -21 82 -24 185 -23 105 0 127 3 170 24 59 27 162 108 225 177 241
259 312 326 395 371 100 55 249 79 291 47z m1955 -5 c35 -11 82 -30 104 -42
51 -27 174 -128 210 -170 76 -90 237 -256 295 -302 107 -87 144 -100 285 -100
103 -1 129 2 185 23 36 14 75 31 87 39 20 13 24 12 30 -4 8 -22 -53 -78 -142
-130 -33 -19 -81 -48 -106 -63 -152 -94 -455 -185 -668 -200 -116 -9 -272 -1
-348 18 -24 6 -62 16 -85 21 -40 10 -152 52 -187 70 -9 5 -41 21 -71 36 -30
14 -66 35 -79 45 -13 11 -28 19 -32 19 -13 0 -132 83 -211 147 -36 30 -101 93
-144 141 -42 48 -97 106 -121 129 -45 44 -57 83 -25 83 31 0 206 -66 325 -124
96 -46 356 -187 417 -226 8 -6 26 -15 40 -20 14 -6 32 -15 40 -20 8 -6 26 -14
40 -20 14 -5 38 -16 53 -25 16 -8 34 -15 40 -15 7 0 26 -7 42 -16 81 -42 297
-95 387 -94 31 1 32 2 14 15 -10 8 -40 21 -65 28 -25 8 -80 25 -121 37 -79 24
-294 126 -337 160 -14 11 -29 20 -34 20 -4 0 -34 17 -66 38 -32 20 -67 42 -78
49 -11 6 -56 33 -100 60 -44 26 -87 52 -95 56 -8 4 -33 19 -55 32 -61 37 -244
125 -259 125 -8 0 -19 6 -25 14 -21 25 7 31 144 32 131 1 267 24 340 59 103
48 144 65 156 65 8 0 23 7 33 15 28 21 112 19 187 -5z m-5676 -76 c18 -7 45
-55 45 -81 0 -10 19 -56 42 -103 62 -124 175 -233 303 -296 110 -53 247 -91
363 -100 45 -4 89 -12 98 -18 14 -10 13 -15 -6 -39 -26 -33 -48 -34 -189 -7
-371 72 -610 231 -708 469 -23 58 -39 153 -28 170 7 12 54 15 80 5z m9288 -62
c-2 -51 -11 -80 -44 -147 -88 -181 -268 -318 -515 -393 -82 -25 -266 -62 -308
-62 -34 0 -66 25 -66 51 0 21 15 25 110 33 230 18 460 130 587 285 46 57 113
184 113 215 0 23 27 73 42 80 7 2 29 4 48 3 l35 -2 -2 -63z m-13682 -72 c10
-6 19 -17 19 -25 0 -8 12 -17 28 -21 48 -10 52 -13 52 -36 -1 -13 -9 -37 -18
-54 -9 -17 -27 -50 -40 -73 -22 -41 -22 -42 -3 -31 12 6 37 36 56 66 20 30 41
54 48 51 31 -10 46 -136 23 -192 -16 -36 -84 -92 -125 -102 -14 -3 -30 -9 -36
-13 -15 -12 -118 -40 -210 -57 -44 -8 -92 -21 -107 -29 -71 -38 -75 -13 -22
131 24 65 44 123 44 127 0 5 13 37 29 71 65 139 188 226 262 187z m18104 -9
c70 -31 142 -128 183 -246 6 -16 28 -79 50 -140 21 -60 37 -116 35 -122 -6
-17 -29 -16 -61 1 -15 8 -63 21 -107 29 -92 17 -195 45 -210 57 -5 4 -22 10
-36 13 -41 10 -109 66 -125 102 -8 19 -14 51 -13 72 1 48 21 115 35 120 6 2
28 -21 48 -51 20 -31 46 -61 57 -67 19 -10 19 -8 -3 32 -72 131 -74 148 -15
162 20 5 37 15 37 22 0 36 64 44 125 16z m-8953 -373 c109 -106 189 -167 386
-291 23 -15 42 -32 42 -37 0 -5 -24 -25 -52 -44 -97 -64 -194 -132 -274 -192
-119 -89 -236 -164 -254 -164 -20 0 -146 84 -342 227 -81 60 -167 120 -192
135 -25 15 -46 32 -46 38 0 5 19 22 43 37 195 123 282 189 381 288 36 36 74
65 85 65 23 0 25 -12 41 -290 12 -193 15 -220 30 -220 15 0 19 32 34 272 8
125 17 232 21 238 11 18 24 11 97 -62z m-6562 -39 c30 -5 91 -13 135 -19 44
-6 112 -17 150 -25 39 -8 90 -19 115 -24 25 -5 74 -17 110 -26 36 -9 78 -19
95 -23 43 -11 55 -50 29 -97 -28 -53 -37 -58 -75 -41 -61 26 -336 90 -559 129
-110 20 -381 40 -419 32 -36 -8 -75 15 -96 55 -11 20 -11 30 -2 39 14 14 434
14 517 0z m13337 0 c9 -9 9 -19 -2 -39 -22 -42 -58 -61 -102 -55 -52 8 -384
-20 -458 -39 -33 -8 -87 -20 -120 -25 -144 -26 -354 -79 -417 -106 -12 -5 -23
4 -42 34 -27 43 -32 67 -17 90 8 12 125 47 241 72 25 5 77 16 115 24 39 8 108
20 155 26 47 6 105 14 130 18 75 14 504 13 517 0z m-14150 -101 c34 -32 30
-63 -9 -78 -99 -39 -216 -145 -277 -251 -45 -78 -81 -190 -81 -251 0 -202 174
-428 402 -524 35 -14 67 -29 71 -33 12 -12 -4 -90 -22 -111 -15 -18 -20 -18
-71 -6 -66 16 -170 50 -196 64 -10 6 -43 22 -73 37 -77 38 -181 125 -230 193
-69 95 -92 160 -98 287 -5 101 -3 116 21 188 15 42 38 96 51 118 70 124 234
272 389 350 86 44 93 45 123 17z m14562 -15 c153 -74 325 -226 395 -349 56
-100 71 -162 70 -294 -1 -112 -4 -131 -27 -185 -54 -125 -172 -248 -298 -310
-30 -15 -63 -31 -73 -37 -26 -14 -130 -48 -196 -64 -51 -12 -56 -12 -71 6 -18
21 -34 99 -22 111 4 4 36 19 71 33 104 44 212 125 275 206 60 77 80 115 105
197 27 89 28 133 1 228 -47 171 -188 336 -336 395 -23 8 -33 19 -33 33 0 22
36 67 54 67 5 0 44 -16 85 -37z m-9846 -93 c122 -29 206 -70 368 -176 36 -24
68 -44 71 -44 3 0 42 -24 87 -52 142 -93 166 -107 277 -162 154 -76 214 -97
305 -107 101 -12 190 2 255 38 64 35 152 125 192 196 31 55 61 73 77 47 4 -6
24 -22 46 -36 23 -14 39 -32 39 -43 0 -31 -140 -152 -227 -197 -43 -23 -112
-52 -153 -65 -69 -22 -91 -24 -285 -24 -172 0 -218 3 -255 17 -25 9 -60 20
-79 23 -105 22 -274 117 -446 253 -139 109 -139 110 -204 147 -80 45 -190 75
-275 75 -73 0 -197 -32 -217 -56 -6 -8 -17 -14 -24 -14 -17 0 -157 -130 -152
-143 1 -5 45 -11 97 -12 69 -2 109 -8 146 -23 136 -55 225 -154 255 -281 21
-92 -95 -234 -266 -324 -202 -107 -519 -151 -794 -112 -213 31 -327 79 -426
180 -58 58 -72 85 -100 192 -9 34 31 132 77 187 62 75 113 113 235 176 113 60
204 85 303 84 149 0 193 -20 134 -58 -31 -21 -27 -39 11 -46 15 -3 33 -13 39
-22 9 -15 1 -27 -54 -78 -35 -32 -61 -62 -57 -66 6 -6 58 37 131 109 16 15 36
27 45 25 14 -3 16 -18 12 -109 -2 -65 1 -109 7 -113 13 -8 20 11 32 92 20 127
27 130 123 65 67 -45 156 -140 200 -211 13 -22 23 -30 30 -23 13 13 -30 95
-91 176 -25 33 -48 73 -52 90 -6 33 -7 33 -135 62 -118 27 -115 44 30 163 115
94 252 163 385 194 133 31 174 32 283 6z m5297 -5 c170 -42 316 -125 458 -260
57 -54 53 -72 -23 -96 -33 -10 -73 -19 -88 -19 -41 0 -67 -17 -67 -43 0 -13
-22 -52 -49 -87 -63 -85 -107 -168 -94 -181 6 -6 19 4 35 29 56 83 128 160
195 205 96 65 103 62 123 -65 12 -81 19 -100 32 -92 6 4 9 48 7 113 -3 89 -2
106 11 109 9 1 49 -29 90 -68 41 -38 78 -70 82 -70 18 0 5 17 -54 72 -53 49
-61 61 -52 76 6 9 22 19 35 20 25 4 49 19 49 32 0 4 -13 13 -30 20 -35 15 -39
36 -7 43 65 17 184 18 237 2 30 -9 71 -20 90 -25 61 -16 209 -98 281 -155 79
-64 158 -205 144 -258 -28 -107 -42 -134 -100 -192 -99 -101 -216 -150 -425
-180 -318 -45 -673 20 -875 159 -98 67 -195 191 -195 249 0 33 49 139 85 183
79 96 187 146 325 149 52 1 96 7 97 12 5 13 -135 143 -152 143 -7 0 -18 6 -24
14 -20 24 -144 56 -217 56 -85 0 -195 -30 -275 -75 -65 -37 -65 -38 -204 -147
-172 -136 -341 -231 -446 -253 -19 -3 -54 -14 -79 -23 -37 -14 -83 -17 -255
-17 -194 0 -216 2 -285 24 -41 13 -110 42 -153 65 -87 45 -227 166 -227 197 0
11 16 29 39 43 22 14 42 30 46 36 16 26 46 8 77 -47 40 -71 128 -161 192 -196
95 -53 266 -56 393 -7 80 31 252 116 315 156 76 47 264 165 301 189 270 171
430 211 637 160z m-9504 -916 c91 -27 126 -41 269 -110 260 -124 300 -141 353
-149 30 -5 73 -18 96 -30 23 -11 48 -20 56 -20 7 0 10 -3 6 -7 -10 -10 -59
-16 -125 -14 -117 3 -455 -20 -529 -36 -54 -12 -127 -17 -243 -17 l-166 -1
-41 29 c-45 31 -48 36 -30 54 9 9 8 17 -2 37 -12 22 -11 28 9 49 13 14 40 27
64 31 l42 6 -27 23 c-37 29 -36 54 2 67 17 6 30 15 30 20 0 12 -32 11 -66 -1
-15 -6 -29 -8 -32 -6 -11 11 30 56 56 62 15 3 41 12 57 20 44 20 141 17 221
-7z m13647 7 c18 -8 44 -17 59 -20 26 -6 67 -51 56 -62 -3 -2 -17 0 -32 6 -35
13 -89 13 -81 0 3 -5 20 -13 38 -18 43 -11 47 -38 10 -68 l-28 -23 42 -6 c25
-5 51 -17 65 -32 19 -21 21 -27 9 -44 -10 -18 -10 -24 3 -38 9 -10 16 -20 16
-23 0 -4 -21 -19 -47 -35 -48 -28 -49 -28 -213 -27 -115 0 -188 6 -242 17 -79
17 -391 37 -551 35 -49 0 -93 4 -99 10 -12 12 72 45 154 61 54 10 95 27 353
150 66 32 138 65 160 74 138 55 265 71 328 43z"/>
<path d="M2612 11307 c2 -32 7 -56 13 -55 12 4 7 89 -6 103 -7 6 -9 -10 -7
-48z"/>
<path d="M2640 11194 c0 -11 7 -29 15 -40 14 -19 14 -19 15 2 0 11 -7 29 -15
40 -14 19 -14 19 -15 -2z"/>
<path d="M17858 11350 c-11 -27 -16 -100 -7 -106 5 -3 12 1 15 9 7 20 0 115
-8 97z"/>
<path d="M17821 11192 c-7 -13 -11 -31 -9 -40 3 -14 6 -13 17 6 7 13 11 31 9
40 -3 14 -6 13 -17 -6z"/>
<path d="M5058 11404 c-12 -11 -10 -232 1 -239 6 -3 13 11 17 31 8 43 -8 219
-18 208z"/>
<path d="M15405 11316 c-7 -96 0 -161 16 -150 12 7 12 231 0 238 -5 4 -12 -36
-16 -88z"/>
<path d="M10221 11163 c-29 -56 -39 -256 -20 -405 19 -146 58 -145 78 2 24
181 2 420 -39 420 -5 0 -13 -8 -19 -17z"/>
<path d="M5337 10994 c-4 -4 -7 -14 -7 -23 0 -11 3 -12 11 -4 6 6 10 16 7 23
-2 6 -7 8 -11 4z"/>
<path d="M5298 10924 c-5 -4 -8 -16 -8 -28 0 -14 3 -17 11 -9 6 6 9 19 7 28
-1 9 -6 13 -10 9z"/>
<path d="M15170 10911 c0 -11 5 -23 10 -26 6 -3 10 3 10 14 0 11 -4 23 -10 26
-5 3 -10 -3 -10 -14z"/>
<path d="M8249 10904 c-6 -17 -9 -66 -7 -119 3 -79 8 -99 42 -168 44 -93 103
-180 151 -227 38 -37 62 -34 27 3 -12 13 -22 27 -22 32 0 5 -6 16 -14 24 -23
26 -96 172 -118 236 -12 34 -23 97 -26 145 -5 94 -15 118 -33 74z"/>
<path d="M5447 10574 c-169 -41 -272 -154 -284 -311 -6 -81 -10 -85 -77 -97
-90 -17 -236 -136 -236 -193 0 -22 5 -19 50 30 61 67 141 114 209 123 28 3 56
13 62 20 6 8 16 56 21 106 12 121 31 153 143 240 26 21 114 51 218 74 21 5 25
9 15 15 -18 12 -52 10 -121 -7z"/>
<path d="M12206 10919 c-2 -8 -7 -50 -9 -94 -3 -44 -14 -107 -25 -140 -22 -64
-95 -209 -118 -236 -8 -8 -14 -19 -14 -24 0 -5 -10 -19 -22 -32 -35 -37 -11
-40 27 -3 48 46 106 134 152 227 37 76 38 81 38 185 0 71 -4 111 -12 119 -10
10 -13 9 -17 -2z"/>
<path d="M14912 10581 c-10 -6 -6 -10 15 -15 104 -23 192 -53 218 -74 109 -85
131 -124 144 -247 5 -47 14 -91 20 -99 6 -7 34 -17 62 -20 68 -9 148 -56 209
-123 45 -49 50 -52 50 -30 0 57 -146 176 -236 193 -67 12 -71 16 -77 97 -11
156 -113 267 -285 311 -67 18 -101 20 -120 7z"/>
<path d="M6877 10974 c-42 -33 -63 -74 -38 -74 10 0 92 66 103 84 26 39 -9 34
-65 -10z"/>
<path d="M6777 10763 c-10 -10 -8 -133 2 -133 14 0 21 28 21 86 0 50 -7 64
-23 47z"/>
<path d="M13530 11003 c0 -14 15 -30 58 -67 49 -41 62 -44 62 -17 0 10 -21 34
-47 55 -43 34 -73 46 -73 29z"/>
<path d="M13680 10717 c0 -60 7 -87 22 -87 14 0 5 133 -9 138 -9 3 -13 -12
-13 -51z"/>
<path d="M7151 10861 c-11 -7 -4 -12 27 -20 23 -7 44 -16 47 -21 3 -6 11 -10
17 -10 7 0 -1 14 -17 30 -30 31 -49 36 -74 21z"/>
<path d="M7280 10780 c0 -5 7 -10 16 -10 8 0 12 5 9 10 -3 6 -10 10 -16 10 -5
0 -9 -4 -9 -10z"/>
<path d="M13255 10840 c-16 -16 -24 -30 -17 -30 6 0 14 4 17 10 3 5 24 14 47
21 31 8 38 13 27 20 -25 15 -44 10 -74 -21z"/>
<path d="M13175 10780 c-3 -5 1 -10 9 -10 9 0 16 5 16 10 0 6 -4 10 -9 10 -6
0 -13 -4 -16 -10z"/>
<path d="M1210 10180 c0 -5 7 -10 15 -10 8 0 15 5 15 10 0 6 -7 10 -15 10 -8
0 -15 -4 -15 -10z"/>
<path d="M19240 10180 c0 -5 7 -10 15 -10 8 0 15 5 15 10 0 6 -7 10 -15 10 -8
0 -15 -4 -15 -10z"/>
<path d="M6637 9223 c-17 -17 -4 -25 31 -18 54 10 64 25 16 25 -23 0 -44 -3
-47 -7z"/>
<path d="M6553 9190 c-26 -11 -31 -30 -7 -30 21 0 54 18 54 30 0 12 -17 12
-47 0z"/>
<path d="M6464 9146 c-10 -8 -16 -18 -12 -22 10 -9 58 12 58 26 0 14 -23 12
-46 -4z"/>
<path d="M13765 9221 c6 -5 27 -13 49 -17 31 -5 38 -4 34 7 -3 8 -22 15 -49
17 -29 2 -41 0 -34 -7z"/>
<path d="M13882 9189 c5 -16 54 -36 65 -26 10 10 -8 25 -41 33 -22 5 -28 4
-24 -7z"/>
<path d="M13970 9150 c0 -14 48 -35 58 -26 8 9 -26 36 -45 36 -7 0 -13 -5 -13
-10z"/>
</g>
</svg>
