<?xml version="1.0" standalone="no"?>
<!DOCTYPE svg PUBLIC "-//W3C//DTD SVG 20010904//EN"
 "http://www.w3.org/TR/2001/REC-SVG-20010904/DTD/svg10.dtd">
<svg version="1.0" xmlns="http://www.w3.org/2000/svg"
 width="1358.000000pt" height="836.000000pt" viewBox="0 0 1358.000000 836.000000"
 preserveAspectRatio="xMidYMid meet">
<metadata>
Created by potrace 1.16, written by Peter Selinger 2001-2019
</metadata>
<g transform="translate(0.000000,836.000000) scale(0.100000,-0.100000)"
fill="#000000" stroke="none">
<path d="M0 8000 l0 -360 28 0 c16 0 64 -9 106 -20 379 -97 507 -409 392 -955
-13 -60 -23 -111 -21 -113 4 -4 144 304 180 396 65 169 80 242 79 397 0 112
-5 156 -22 220 -27 98 -110 271 -186 389 -31 48 -55 90 -52 93 10 10 121 -160
180 -279 92 -184 111 -258 110 -438 0 -217 -34 -324 -239 -765 -200 -430 -223
-504 -232 -735 -13 -352 100 -602 318 -699 24 -11 47 -17 51 -15 4 3 8 19 8
36 0 96 78 291 149 370 118 133 320 140 458 15 84 -76 111 -195 66 -283 -67
-127 -278 -216 -515 -217 -125 -1 -116 11 -93 -123 71 -407 394 -849 830
-1137 345 -227 691 -299 977 -201 84 28 84 28 69 10 -19 -23 -122 -64 -203
-80 -319 -65 -729 81 -1098 391 -154 130 -294 288 -406 458 -60 92 -106 138
-185 188 -156 99 -339 103 -466 12 -26 -19 -58 -42 -71 -51 -45 -32 -33 -4 19
49 79 78 151 110 265 115 100 5 155 -8 249 -57 28 -14 53 -27 57 -29 3 -2 -7
30 -23 69 -40 97 -67 204 -80 314 -6 49 -12 90 -12 90 -1 1 -37 18 -81 39
-187 91 -296 279 -328 568 -20 178 14 405 84 572 37 88 39 95 88 346 50 259
60 338 60 458 0 179 -47 317 -139 411 -77 79 -153 119 -302 161 l-69 19 0
-3815 0 -3814 6790 0 6790 0 0 4180 0 4180 -6790 0 -6790 0 0 -360z m1884 236
c141 -69 215 -231 203 -444 -5 -105 -23 -164 -117 -394 l-49 -117 80 -31 c192
-74 389 -104 648 -99 99 3 174 1 167 -3 -8 -4 -68 -13 -135 -19 -208 -20 -491
17 -693 91 -69 25 -77 26 -83 12 -29 -71 -69 -203 -85 -284 -26 -124 -25 -208
1 -294 17 -56 31 -77 77 -124 57 -57 140 -99 223 -115 l35 -7 13 83 c30 194
102 287 180 233 60 -42 81 -186 40 -272 -25 -51 -81 -91 -138 -99 -41 -6 -41
-6 -41 -48 0 -74 31 -227 70 -345 92 -275 213 -502 574 -1073 48 -76 85 -142
81 -145 -10 -10 -25 9 -310 412 -252 357 -515 542 -704 496 -164 -39 -211
-190 -96 -306 39 -39 50 -44 89 -44 36 0 49 6 75 32 17 18 39 56 48 85 18 58
36 72 27 21 -12 -63 -52 -137 -86 -158 -120 -76 -290 94 -256 256 21 97 141
174 271 174 110 -1 252 -67 380 -178 27 -23 49 -42 51 -42 1 0 -31 66 -70 148
-121 246 -176 416 -196 602 -6 58 -12 106 -13 108 -1 1 -27 9 -59 17 -136 36
-246 117 -296 219 -68 140 -58 313 32 574 21 63 38 115 36 116 -2 1 -37 22
-78 46 -108 62 -234 192 -283 291 -50 101 -70 200 -64 309 10 175 92 294 237
341 48 16 156 3 214 -25z m9661 -2447 c146 -15 330 -54 474 -101 667 -217
1113 -676 1242 -1280 27 -125 36 -375 19 -533 -10 -102 -10 -133 3 -210 46
-269 22 -455 -87 -680 -73 -148 -159 -268 -291 -400 -169 -171 -373 -318 -630
-458 -155 -85 -505 -239 -505 -223 0 3 57 37 128 76 481 271 867 616 1046 935
25 44 62 130 82 190 34 100 38 122 42 245 4 142 -1 153 -32 67 -57 -154 -228
-316 -418 -395 -244 -101 -553 -74 -717 64 -36 30 -36 39 2 25 14 -6 64 -15
111 -21 254 -34 566 85 759 290 112 118 157 223 157 363 0 79 -1 81 -42 134
-175 228 -537 398 -973 459 -158 22 -529 25 -675 5 -290 -39 -560 -131 -940
-320 -168 -84 -500 -271 -500 -282 0 -4 10 -11 23 -15 21 -7 20 -8 -11 -18
l-33 -11 68 -13 c140 -27 261 -110 313 -217 30 -60 39 -189 20 -274 -32 -145
-129 -311 -238 -411 -111 -102 -242 -153 -392 -152 -125 0 -233 39 -312 110
-140 126 -85 323 121 435 64 36 77 30 19 -8 -113 -75 -188 -177 -188 -256 0
-117 141 -223 317 -236 193 -15 382 82 497 256 117 176 162 376 112 496 -19
45 -90 121 -141 151 -58 34 -185 64 -270 64 l-72 0 -144 -93 c-79 -52 -299
-199 -489 -329 -305 -207 -473 -318 -725 -480 -51 -32 -85 -64 -122 -114 -177
-239 -300 -499 -348 -739 -9 -44 -20 -155 -25 -247 -6 -136 -11 -174 -27 -200
-29 -50 -72 -50 -151 2 -35 22 -83 46 -106 52 -38 10 -48 9 -90 -11 -85 -41
-148 -152 -164 -289 -8 -65 -9 -66 -21 -37 -65 156 -57 384 21 605 34 95 107
244 169 347 23 38 44 72 47 78 3 5 -16 -8 -42 -30 -107 -87 -216 -234 -299
-400 -45 -91 -94 -217 -213 -540 -78 -215 -164 -398 -242 -514 -69 -105 -204
-248 -285 -302 -62 -41 -92 -46 -41 -7 55 42 166 153 215 214 120 151 205 331
334 704 154 448 242 627 386 784 30 33 47 56 39 51 -129 -74 -331 -278 -507
-511 -34 -44 -132 -186 -219 -315 -267 -396 -403 -574 -573 -752 -211 -220
-476 -398 -773 -521 -140 -58 -134 -41 9 28 469 227 743 476 1109 1006 109
158 339 508 322 490 -8 -8 -89 -103 -180 -210 -176 -208 -285 -318 -440 -441
-633 -505 -1491 -809 -2218 -786 -258 8 -272 24 -20 24 212 0 335 11 525 44
510 88 1054 314 1480 612 259 181 420 335 691 657 306 364 466 519 706 684 98
68 242 141 297 152 24 5 77 44 59 44 -3 0 -45 -18 -94 -41 -406 -187 -846
-311 -1284 -360 -171 -20 -583 -17 -760 4 -282 34 -623 115 -915 218 -200 70
-581 227 -572 235 2 2 89 -20 194 -50 552 -157 942 -219 1378 -220 324 0 577
30 880 105 97 24 316 91 312 95 -2 2 -52 -3 -113 -11 -271 -35 -529 -28 -769
20 -154 31 -252 64 -392 130 -343 163 -558 403 -645 721 -30 111 -30 344 0
454 100 370 346 652 681 783 262 102 542 87 804 -43 426 -213 586 -596 369
-883 -26 -33 -72 -78 -103 -99 -54 -37 -57 -41 -67 -96 -38 -211 -188 -372
-399 -426 -77 -20 -201 -20 -278 -1 -283 72 -488 351 -445 607 l12 68 53 0
c78 0 212 26 323 62 70 23 116 32 167 32 77 1 109 -12 320 -129 55 -30 124
-63 153 -72 28 -9 52 -20 52 -24 0 -16 -325 -86 -542 -116 -71 -10 -128 -21
-128 -25 0 -14 119 -68 182 -83 170 -40 368 8 472 114 l38 38 -59 -20 c-69
-24 -278 -36 -309 -18 -15 8 -3 10 56 11 256 1 463 151 500 359 33 182 -75
367 -290 499 -161 99 -306 142 -485 142 -237 0 -416 -76 -603 -255 -272 -259
-364 -634 -234 -944 116 -276 428 -509 813 -606 191 -49 295 -60 564 -59 186
0 281 4 370 18 243 35 524 105 618 153 227 114 659 397 1242 813 677 482 977
674 1360 871 441 226 791 347 1130 390 127 16 509 16 640 0 377 -47 727 -163
970 -321 160 -105 316 -257 389 -379 65 -111 -22 135 -97 271 -152 279 -382
499 -662 637 -592 292 -1319 225 -1977 -182 -60 -37 -108 -62 -108 -57 0 15
229 163 345 222 726 368 1529 315 2087 -139 220 -179 395 -446 490 -748 l28
-90 -4 180 c-6 254 -44 418 -145 631 -248 520 -783 880 -1474 991 -173 28
-568 25 -737 -5 -488 -87 -859 -269 -1184 -582 -206 -199 -335 -383 -413 -590
-45 -118 -64 -225 -70 -400 -7 -181 -20 -183 -22 -3 -2 212 34 366 129 558
169 340 505 660 897 854 409 203 846 279 1328 230z m-3685 -417 c61 -198 40
-451 -55 -667 -66 -148 -208 -316 -349 -409 -240 -159 -569 -190 -769 -73 -79
46 -77 54 11 49 167 -9 347 66 511 214 93 84 215 249 256 349 l16 36 -73 -53
c-321 -238 -479 -344 -603 -407 -87 -45 -173 -76 -182 -67 -4 3 5 19 19 34 38
41 78 105 143 227 85 160 140 239 230 334 128 133 257 224 561 394 93 52 185
104 204 116 33 20 36 20 48 4 7 -10 21 -46 32 -81z m-3372 -349 c-6 -199 -18
-264 -62 -352 -45 -89 -153 -181 -265 -226 -56 -23 -188 -52 -196 -43 -3 2 7
20 21 39 14 19 54 91 89 160 35 69 76 140 90 157 l27 32 -27 -10 c-102 -39
-160 -99 -282 -296 -10 -16 -12 -4 -12 66 -1 176 78 346 197 421 24 15 86 44
139 64 92 36 219 112 257 154 11 12 22 21 25 21 3 0 3 -84 -1 -187z m-1058
112 c286 -79 409 -219 410 -462 0 -58 -15 -169 -24 -180 -5 -6 -259 252 -278
281 l-20 31 5 -58 c8 -85 53 -171 132 -256 76 -80 72 -85 -36 -51 -135 41
-243 128 -295 238 -25 51 -28 73 -35 207 -8 154 -17 202 -50 267 -11 21 -19
39 -19 42 0 3 26 -4 58 -14 31 -10 100 -30 152 -45z m-1269 -185 c30 -74 43
-125 47 -173 4 -61 2 -73 -27 -132 -34 -69 -92 -127 -147 -147 -36 -13 -48
-37 -27 -56 11 -11 9 -18 -9 -42 -26 -36 -58 -40 -59 -7 l0 22 -9 -22 c-11
-27 -28 -30 -36 -5 -3 9 -10 27 -16 39 -12 24 -4 43 18 43 8 0 13 4 10 9 -3 5
0 14 8 20 11 9 17 8 29 -3 8 -8 18 -12 22 -8 3 4 14 7 23 7 20 0 30 33 31 110
1 33 5 77 10 98 13 55 -8 43 -42 -24 -16 -31 -31 -79 -34 -112 -3 -31 -9 -57
-14 -57 -17 0 -49 112 -49 176 0 94 26 147 109 221 37 34 78 81 91 106 14 25
25 45 26 44 1 -1 21 -49 45 -107z m-440 -167 c87 -39 163 -144 177 -245 l5
-42 -29 20 c-16 11 -54 31 -84 43 -30 13 -70 31 -87 42 -39 22 -42 13 -10 -27
34 -44 67 -70 120 -95 26 -12 47 -26 47 -31 0 -4 -29 -8 -65 -8 -131 0 -240
67 -285 177 -26 64 -66 128 -100 158 l-22 20 48 7 c94 12 235 3 285 -19z m655
-239 c120 -65 160 -83 201 -89 l43 -6 -77 -65 c-43 -35 -106 -78 -140 -95 -57
-29 -70 -31 -130 -27 -42 3 -85 13 -111 27 l-43 22 31 -42 c17 -24 38 -67 46
-97 15 -50 15 -61 -1 -144 -12 -59 -16 -109 -11 -149 l6 -59 -104 69 c-155
104 -187 150 -194 277 -4 73 -1 88 22 140 l27 59 19 -43 c11 -24 28 -56 39
-71 11 -14 31 -49 46 -76 l27 -50 -4 66 c-3 48 -12 83 -34 128 -17 33 -29 61
-27 61 3 0 13 -5 23 -10 15 -8 18 -7 14 3 -3 10 27 19 120 38 109 21 122 26
103 36 -34 18 -117 26 -175 15 -28 -5 -52 -6 -52 -1 0 16 76 70 125 89 74 28
151 26 211 -6z m1493 -91 c13 -25 -5 -53 -34 -53 -14 0 -25 2 -25 4 0 2 -3 11
-6 19 -6 16 21 47 41 47 8 0 18 -8 24 -17z m-356 -9 c65 -17 183 -72 173 -81
-3 -3 -29 -16 -58 -27 -29 -12 -95 -46 -147 -76 -51 -30 -116 -61 -143 -71
-57 -19 -54 -24 17 -33 70 -10 176 14 280 63 47 22 85 37 85 34 0 -4 -14 -28
-31 -54 -47 -74 -148 -163 -234 -205 -106 -52 -188 -57 -339 -19 -95 24 -124
27 -213 23 -97 -4 -103 -4 -91 13 229 321 311 398 463 435 71 17 167 17 238
-2z m287 -44 c0 -23 -32 -43 -54 -34 -21 8 -20 51 1 63 23 12 53 -4 53 -29z
m-1943 17 c3 -4 -50 -65 -133 -154 -28 -28 -29 -33 -13 -33 32 0 98 39 150 87
l49 46 -6 -34 c-9 -49 -47 -129 -79 -167 -36 -43 -114 -82 -163 -82 -71 0
-164 -24 -223 -57 -8 -5 45 194 63 238 46 108 161 174 287 164 35 -2 66 -6 68
-8z m2073 -2 c20 -24 3 -57 -28 -53 -30 3 -41 30 -22 53 16 19 34 19 50 0z
m477 -21 c79 -26 137 -70 197 -148 71 -92 128 -146 201 -187 l57 -32 -148 -54
c-195 -71 -260 -86 -359 -81 -154 8 -295 104 -372 254 -21 40 -35 75 -32 79 4
3 28 1 55 -5 26 -6 97 -16 156 -21 60 -6 130 -17 155 -24 26 -8 49 -13 51 -10
2 2 -14 21 -36 43 -53 53 -132 90 -233 109 -116 21 -118 22 -94 36 11 6 51 21
90 33 88 29 239 33 312 8z m-550 -20 c9 -24 -10 -49 -38 -49 -16 0 -26 -7 -29
-20 -8 -27 -63 -28 -68 -2 -5 27 18 49 45 42 15 -3 23 -1 23 8 0 34 55 51 67
21z m78 -44 c13 -41 -43 -70 -64 -33 -13 25 5 53 34 53 15 0 26 -7 30 -20z
m-70 -40 c13 -41 -43 -70 -64 -33 -13 25 5 53 34 53 15 0 26 -7 30 -20z m-61
-285 c9 -49 16 -112 16 -140 l0 -50 20 25 c11 14 30 56 41 94 19 60 21 85 16
190 l-5 121 34 -40 c149 -177 164 -421 35 -583 -47 -61 -104 -172 -126 -250
l-22 -73 -91 125 c-148 200 -195 321 -172 448 24 129 87 244 183 330 l42 38 6
-73 c4 -39 14 -112 23 -162z m7620 19 c45 -53 133 -121 218 -166 85 -45 143
-100 165 -156 14 -37 18 -75 18 -187 0 -155 -13 -335 -24 -335 -4 0 -15 14
-25 31 -44 74 -172 232 -276 339 l-111 115 6 -66 c17 -199 148 -384 322 -454
l58 -24 -36 -15 c-82 -34 -248 -37 -345 -6 -209 68 -344 261 -344 490 1 198
97 377 242 449 34 17 69 31 77 31 9 0 34 -21 55 -46z m-3918 -78 c156 -78 337
-246 409 -378 l26 -48 -80 -76 c-186 -178 -318 -244 -486 -244 -286 0 -534
232 -535 501 0 60 34 189 50 189 6 0 10 -7 10 -15 0 -42 46 -130 97 -185 94
-102 216 -147 369 -137 137 8 135 14 -28 101 -138 75 -276 166 -352 233 -20
18 -36 34 -36 36 0 3 55 7 123 10 97 4 136 10 192 30 103 37 137 35 241 -17z
m-6346 -33 c0 -5 37 -51 81 -103 167 -199 195 -331 107 -504 -21 -41 -114
-146 -129 -146 -5 0 -9 15 -9 33 0 18 -11 88 -25 155 -14 68 -23 133 -20 145
3 12 -5 5 -19 -17 -24 -38 -51 -150 -42 -177 2 -8 7 -43 11 -79 l6 -65 -36 35
c-20 19 -53 68 -73 109 -30 61 -37 88 -40 147 -5 87 8 131 59 206 52 75 97
172 105 225 3 24 10 43 15 43 5 0 9 -3 9 -7z m1926 -240 c7 -10 53 -67 104
-128 120 -144 173 -248 178 -350 5 -84 -14 -160 -60 -248 -30 -56 -127 -167
-146 -167 -5 0 -12 27 -15 60 -4 34 -16 96 -27 139 -11 43 -23 110 -28 147
l-7 69 -30 -60 c-28 -55 -30 -69 -30 -165 0 -58 4 -127 8 -155 l9 -50 -32 30
c-133 126 -192 347 -128 486 14 30 41 77 60 104 63 88 118 218 118 277 0 32
10 36 26 11z m-2230 -302 c78 -36 161 -116 199 -191 l27 -53 -34 7 c-18 4 -89
13 -158 21 -69 7 -138 19 -155 25 l-30 11 34 -34 c44 -46 131 -84 225 -99 42
-7 76 -16 76 -20 0 -3 -26 -17 -57 -29 -47 -19 -78 -23 -168 -23 -151 -1 -193
18 -324 153 -64 66 -114 108 -151 126 l-54 28 124 44 c233 83 326 90 446 34z
m901 -22 c68 -16 109 -20 180 -17 l91 5 -37 -51 c-21 -28 -58 -81 -84 -117
-64 -92 -145 -163 -215 -189 -72 -27 -172 -36 -242 -21 -65 14 -174 61 -163
71 4 4 26 14 48 23 22 8 80 38 129 66 50 28 103 53 119 57 45 9 13 24 -54 24
-65 0 -142 -21 -221 -61 -32 -16 -58 -27 -58 -23 0 20 81 123 123 156 125 98
217 117 384 77z m-592 -229 c0 -14 9 -33 20 -42 20 -18 20 -18 -2 -37 -28 -24
-30 -35 -3 -21 11 6 24 9 28 6 4 -2 8 8 7 22 0 16 -7 30 -17 34 -21 9 -23 31
-4 47 20 17 48 2 44 -23 -2 -11 5 -28 15 -36 20 -17 14 -50 -8 -50 -8 0 -15
-10 -17 -22 -4 -27 -45 -38 -54 -14 -5 14 -8 14 -21 1 -18 -19 -27 -19 -43 0
-17 20 -5 45 22 45 17 0 19 3 10 12 -8 8 -15 8 -25 -1 -21 -17 -47 -3 -47 25
0 18 5 24 23 24 13 0 28 -5 34 -11 8 -8 13 -8 17 0 4 6 1 11 -7 11 -20 0 -30
29 -16 47 18 21 44 11 44 -17z m1561 -94 c95 -47 183 -132 232 -224 18 -34 30
-62 25 -62 -4 0 -26 5 -48 10 -22 5 -96 14 -164 21 -68 6 -146 17 -173 24 -26
6 -48 9 -48 4 0 -14 74 -69 127 -95 29 -14 103 -36 165 -48 l113 -23 -40 -17
c-180 -79 -377 -71 -513 19 -21 14 -64 56 -96 94 -63 76 -134 135 -215 180
l-52 28 163 57 c211 73 224 75 344 73 95 -2 106 -5 180 -41z m1043 -18 c69
-18 113 -23 222 -23 l135 0 -50 -70 c-123 -172 -148 -204 -198 -251 -109 -103
-210 -140 -368 -132 -78 4 -110 11 -179 39 -47 19 -86 39 -88 44 -2 6 14 17
34 24 21 7 90 42 155 78 64 35 132 69 152 75 20 6 36 15 36 19 0 4 -24 10 -52
14 -73 9 -185 -16 -285 -65 -46 -21 -83 -35 -83 -31 0 5 18 36 41 70 48 72
112 129 193 172 117 63 199 72 335 37z m-2709 -38 c-11 -16 -41 -73 -66 -126
-24 -53 -54 -110 -65 -125 -26 -36 -15 -37 42 -1 55 36 110 99 152 175 l32 58
12 -48 c7 -32 11 -39 12 -22 1 14 3 28 6 31 5 5 84 -65 208 -184 l60 -57 -6
36 c-10 62 -54 136 -117 198 -33 33 -60 63 -60 67 0 13 125 -24 182 -54 76
-40 130 -94 164 -160 21 -41 28 -74 35 -161 8 -100 18 -139 65 -243 6 -12
-208 42 -299 76 -70 26 -130 71 -174 128 -36 48 -72 153 -74 216 l-1 41 -9
-45 c-23 -118 -111 -231 -207 -266 -97 -34 -189 -83 -234 -123 -25 -22 -48
-41 -51 -41 -2 0 -7 57 -11 128 -11 218 17 316 116 407 33 31 77 64 99 75 48
25 133 48 177 49 l33 1 -21 -30z m10195 -109 c50 -11 139 -30 200 -41 125 -24
191 -55 241 -114 78 -91 121 -245 111 -401 -6 -90 -25 -195 -36 -195 -3 0 -21
32 -39 70 -56 119 -206 257 -369 339 -56 28 -56 18 2 -97 57 -113 164 -231
277 -304 43 -28 76 -53 74 -56 -9 -8 -203 -32 -266 -32 -217 0 -368 119 -436
346 -12 38 -18 92 -18 154 0 117 26 208 84 299 34 53 44 62 63 57 12 -3 63
-14 112 -25z m-8158 -117 c3 -9 1 -25 -6 -35 -9 -16 -8 -19 8 -19 14 0 18 5
14 18 -6 25 21 45 48 37 16 -6 20 -13 17 -36 -3 -19 0 -29 8 -29 20 0 34 -33
23 -53 -12 -21 -42 -22 -60 -1 -10 12 -10 20 -1 35 10 16 9 19 -8 19 -13 0
-18 -5 -14 -15 7 -18 -12 -45 -32 -45 -7 0 -20 7 -29 16 -12 13 -19 14 -28 5
-26 -26 -74 0 -61 32 10 28 46 32 65 8 12 -15 18 -17 22 -8 3 8 -4 19 -14 25
-19 12 -25 42 -12 55 13 13 54 7 60 -9z m-7 -154 c0 -26 -36 -45 -56 -29 -33
27 0 78 38 58 10 -5 18 -18 18 -29z m70 15 c6 -8 9 -23 5 -35 -10 -31 -59 -24
-63 9 -6 37 34 55 58 26z m-184 -37 c-25 -36 -57 -96 -93 -176 -18 -40 -49
-98 -68 -127 l-34 -54 27 10 c80 31 175 126 232 233 19 36 38 66 43 66 14 0 7
-185 -9 -241 -51 -170 -127 -244 -332 -323 -78 -30 -158 -78 -213 -128 -23
-21 -43 -38 -45 -38 -2 0 -4 87 -4 193 0 269 21 341 131 449 86 84 244 153
358 157 22 1 23 0 7 -21z m409 -55 c81 -34 174 -104 215 -160 50 -70 67 -125
74 -243 7 -109 24 -181 60 -254 14 -28 24 -51 23 -52 -1 -1 -75 17 -164 40
-307 81 -409 156 -473 346 -19 55 -21 81 -18 165 3 55 9 109 15 119 9 17 12
16 32 -13 12 -16 69 -70 128 -118 58 -48 116 -104 129 -123 l24 -35 0 40 c0
66 -51 158 -135 245 -41 42 -75 79 -75 82 0 9 118 -19 165 -39z m1590 -496
c120 -31 247 -76 240 -87 -2 -4 -34 -10 -70 -14 -283 -29 -600 -146 -780 -289
-71 -56 -165 -154 -165 -171 0 -3 15 0 33 8 144 63 222 94 432 166 258 89 413
151 513 207 34 19 62 29 62 23 0 -29 -135 -205 -230 -300 -177 -178 -309 -265
-615 -408 -177 -83 -280 -137 -514 -275 -52 -31 -98 -54 -102 -52 -27 17 -64
268 -55 369 40 424 328 744 757 841 105 24 368 14 494 -18z m6170 -3 c66 -8
187 -26 270 -39 83 -14 191 -25 243 -25 111 0 112 -8 6 -57 -147 -67 -462
-137 -943 -208 -128 -18 -235 -36 -237 -38 -9 -9 204 -48 316 -58 386 -37 823
89 967 278 33 43 44 42 31 -4 -27 -100 -121 -240 -216 -321 -150 -128 -302
-206 -507 -258 -123 -32 -364 -43 -497 -25 -250 36 -498 143 -671 289 -128
110 -225 259 -235 363 l-4 47 38 -9 c78 -18 218 -9 495 31 153 22 331 44 396
49 144 12 387 5 548 -15z m834 -290 c-28 -84 -42 -217 -35 -321 6 -90 32 -248
43 -267 10 -15 52 64 79 149 38 117 45 289 15 405 -11 46 -19 86 -16 88 8 8
85 -49 157 -116 126 -119 181 -231 180 -372 0 -242 -174 -466 -424 -545 -135
-43 -123 -50 -223 141 -115 220 -138 281 -139 369 -1 89 22 155 84 248 66 98
249 275 286 276 7 1 5 -18 -7 -55z m-4499 -384 c0 -6 -14 -35 -32 -66 -25 -45
-32 -71 -36 -128 -3 -64 -1 -77 25 -126 32 -61 102 -120 163 -139 60 -18 162
-14 224 9 64 24 116 77 116 118 0 68 -82 143 -164 150 -45 4 -56 1 -83 -22
-19 -16 -39 -47 -49 -79 -19 -55 -31 -43 -20 19 13 65 85 124 153 124 39 0
122 -41 155 -76 39 -42 61 -100 53 -141 -9 -49 -65 -106 -137 -139 -54 -24
-76 -28 -153 -29 -79 0 -98 4 -152 29 -72 33 -134 95 -166 164 -30 66 -29 170
2 232 34 67 101 133 101 100z"/>
<path d="M1650 8204 c-54 -24 -97 -61 -126 -110 -100 -170 -54 -432 106 -607
56 -60 212 -177 237 -177 6 0 38 66 71 148 96 236 97 241 97 382 -1 143 -19
206 -80 278 l-35 41 -60 -20 c-111 -38 -161 -128 -140 -255 14 -81 13 -89 -4
-75 -7 6 -21 36 -31 67 -44 140 19 278 143 314 l27 7 -28 12 c-40 16 -135 13
-177 -5z"/>
<path d="M2271 6643 c-20 -41 -51 -166 -51 -207 0 -66 113 2 130 79 15 65 -12
165 -45 165 -8 0 -23 -17 -34 -37z"/>
<path d="M1958 4434 c5 -29 8 -30 15 -5 3 11 -1 22 -8 24 -8 4 -10 -3 -7 -19z"/>
<path d="M1905 4430 c-3 -5 -1 -10 4 -10 6 0 11 5 11 10 0 6 -2 10 -4 10 -3 0
-8 -4 -11 -10z"/>
<path d="M985 5552 c-113 -53 -183 -167 -221 -360 -22 -115 -33 -105 119 -99
217 8 369 69 434 176 56 90 3 214 -120 277 -49 26 -163 29 -212 6z"/>
</g>
</svg>
